<svg id="Layer_1" data-name="Layer 1" xmlns="http://www.w3.org/2000/svg" viewBox="0 0 549.58 401.01"><defs><style>.cls-1{fill:#7a8b5d;}.cls-2{fill:#8d9c75;}.cls-3{fill:#a39e7e;}.cls-4{fill:#6b6651;}.cls-5{fill:#7b765f;}.cls-6{fill:#c2b896;}.cls-7{fill:none;stroke:#7b765f;stroke-miterlimit:10;}</style></defs><title>alkolan</title><path class="cls-1" d="M33.58,79a52.4,52.4,0,0,1,104.8,0" transform="translate(-16.99 -26.63)"/><polygon class="cls-1" points="121.36 54.93 68.99 139.94 86.4 54.93 121.36 54.93"/><polygon class="cls-2" points="53.83 54.93 84.44 54.93 68.99 140.45 53.83 54.93"/><polygon class="cls-1" points="51.73 55.22 17.05 55.22 68.99 139.94 51.73 55.22"/><path class="cls-2" d="M34,79.17a17.48,17.48,0,1,1,35,0" transform="translate(-16.99 -26.63)"/><path class="cls-2" d="M68.72,79.17a17.48,17.48,0,0,1,35,0" transform="translate(-16.99 -26.63)"/><path class="cls-2" d="M103.39,79.17a17.48,17.48,0,0,1,35,0" transform="translate(-16.99 -26.63)"/><polygon class="cls-3" points="146.78 248.33 73.41 367.42 97.8 248.33 146.78 248.33"/><polygon class="cls-4" points="52.17 248.33 95.05 248.33 73.41 368.13 52.17 248.33"/><polygon class="cls-3" points="49.22 248.74 0.65 248.74 73.41 367.42 49.22 248.74"/><path class="cls-5" d="M17,271.43a73.41,73.41,0,0,1,146.82,0" transform="translate(-16.99 -26.63)"/><path class="cls-6" d="M17.65,271.61a24.49,24.49,0,1,1,49,0" transform="translate(-16.99 -26.63)"/><path class="cls-6" d="M66.22,271.61a24.49,24.49,0,1,1,49,0" transform="translate(-16.99 -26.63)"/><path class="cls-6" d="M114.79,271.61a24.49,24.49,0,1,1,49,0" transform="translate(-16.99 -26.63)"/><polygon class="cls-5" points="333.01 331.44 413.89 155.02 448.65 231.02 457.5 250.39 494.56 331.44 549.58 331.44 481.74 213.93 413.89 96.42 346.05 213.93 278.2 331.44 333.01 331.44"/><polygon class="cls-7" points="512.83 223.34 412.69 385.88 445.98 223.34 512.83 223.34"/><polygon class="cls-7" points="381.42 221.84 444.53 221.84 412.67 398.18 381.42 221.84"/><polygon class="cls-7" points="379.69 223.9 313.4 223.9 412.69 385.88 379.69 223.9"/><path class="cls-5" d="M327.84,253.35a102,102,0,1,1,204.1,0" transform="translate(-16.99 -26.63)"/><path class="cls-6" d="M328.74,253.6a34,34,0,1,1,68.09,0" transform="translate(-16.99 -26.63)"/><path class="cls-6" d="M396.27,253.6a34,34,0,0,1,68.09,0" transform="translate(-16.99 -26.63)"/><path class="cls-6" d="M463.79,253.6a34,34,0,1,1,68.09,0" transform="translate(-16.99 -26.63)"/><polygon class="cls-5" points="333.01 331.44 299.56 379.71 278.2 331.44 333.01 331.44"/><path class="cls-5" d="M348.72,435.5" transform="translate(-16.99 -26.63)"/><polygon class="cls-5" points="494.56 331.44 549.58 331.44 530.25 378.85 494.56 331.44"/></svg>